{
	"asset":{
		"generator":"Khronos glTF Blender I/O v4.0.44",
		"version":"2.0"
	},
	"scene":0,
	"scenes":[
		{
			"name":"Scene",
			"nodes":[
				0,
				1,
				2,
				3,
				4,
				5
			]
		}
	],
	"nodes":[
		{
			"mesh":0,
			"name":"Sphere0"
		},
		{
			"mesh":1,
			"name":"Sphere1",
			"translation":[
				0,
				0,
				-2
			]
		},
		{
			"mesh":2,
			"name":"Sphere2",
			"translation":[
				0,
				0,
				-4
			]
		},
		{
			"mesh":3,
			"name":"Sphere3",
			"translation":[
				0,
				0,
				-6
			]
		},
		{
			"mesh":4,
			"name":"Sphere4",
			"translation":[
				0,
				0,
				-8
			]
		},
		{
			"mesh":5,
			"name":"Sphere5",
			"translation":[
				0,
				0,
				-10
			]
		}
	],
	"materials":[
		{
			"doubleSided":true,
			"name":"sphere0",
			"pbrMetallicRoughness":{
				"baseColorFactor":[
					0.42835837602615356,
					0.5903432965278625,
					0.7988620400428772,
					1
				],
				"metallicFactor":0,
				"roughnessFactor":0
			}
		},
		{
			"doubleSided":true,
			"name":"sphere1",
			"pbrMetallicRoughness":{
				"baseColorFactor":[
					0.42835837602615356,
					0.5903432965278625,
					0.7988620400428772,
					1
				],
				"metallicFactor":0,
				"roughnessFactor":0.20000000298023224
			}
		},
		{
			"doubleSided":true,
			"name":"sphere2",
			"pbrMetallicRoughness":{
				"baseColorFactor":[
					0.42835837602615356,
					0.5903432965278625,
					0.7988620400428772,
					1
				],
				"metallicFactor":0,
				"roughnessFactor":0.4000000059604645
			}
		},
		{
			"doubleSided":true,
			"name":"sphere3",
			"pbrMetallicRoughness":{
				"baseColorFactor":[
					0.42835837602615356,
					0.5903432965278625,
					0.7988620400428772,
					1
				],
				"metallicFactor":0,
				"roughnessFactor":0.6000000238418579
			}
		},
		{
			"doubleSided":true,
			"name":"sphere4",
			"pbrMetallicRoughness":{
				"baseColorFactor":[
					0.42835837602615356,
					0.5903432965278625,
					0.7988620400428772,
					1
				],
				"metallicFactor":0,
				"roughnessFactor":0.800000011920929
			}
		},
		{
			"doubleSided":true,
			"name":"sphere5",
			"pbrMetallicRoughness":{
				"baseColorFactor":[
					0.42835837602615356,
					0.5903432965278625,
					0.7988620400428772,
					1
				],
				"metallicFactor":0
			}
		}
	],
	"meshes":[
		{
			"name":"Cube",
			"primitives":[
				{
					"attributes":{
						"POSITION":0,
						"NORMAL":1,
						"TEXCOORD_0":2
					},
					"indices":3,
					"material":0
				}
			]
		},
		{
			"name":"Cube.002",
			"primitives":[
				{
					"attributes":{
						"POSITION":4,
						"NORMAL":5,
						"TEXCOORD_0":6
					},
					"indices":7,
					"material":1
				}
			]
		},
		{
			"name":"Cube.003",
			"primitives":[
				{
					"attributes":{
						"POSITION":8,
						"NORMAL":9,
						"TEXCOORD_0":10
					},
					"indices":7,
					"material":2
				}
			]
		},
		{
			"name":"Cube.004",
			"primitives":[
				{
					"attributes":{
						"POSITION":11,
						"NORMAL":12,
						"TEXCOORD_0":13
					},
					"indices":7,
					"material":3
				}
			]
		},
		{
			"name":"Cube.005",
			"primitives":[
				{
					"attributes":{
						"POSITION":14,
						"NORMAL":15,
						"TEXCOORD_0":16
					},
					"indices":7,
					"material":4
				}
			]
		},
		{
			"name":"Cube.006",
			"primitives":[
				{
					"attributes":{
						"POSITION":17,
						"NORMAL":18,
						"TEXCOORD_0":19
					},
					"indices":7,
					"material":5
				}
			]
		}
	],
	"accessors":[
		{
			"bufferView":0,
			"componentType":5126,
			"count":125,
			"max":[
				0.8395062685012817,
				0.8395062685012817,
				0.8395062685012817
			],
			"min":[
				-0.8395062685012817,
				-0.8395062685012817,
				-0.8395062685012817
			],
			"type":"VEC3"
		},
		{
			"bufferView":1,
			"componentType":5126,
			"count":125,
			"type":"VEC3"
		},
		{
			"bufferView":2,
			"componentType":5126,
			"count":125,
			"type":"VEC2"
		},
		{
			"bufferView":3,
			"componentType":5123,
			"count":576,
			"type":"SCALAR"
		},
		{
			"bufferView":4,
			"componentType":5126,
			"count":441,
			"max":[
				0.8395062685012817,
				0.8395062685012817,
				0.8395062685012817
			],
			"min":[
				-0.8395062685012817,
				-0.8395062685012817,
				-0.8395062685012817
			],
			"type":"VEC3"
		},
		{
			"bufferView":5,
			"componentType":5126,
			"count":441,
			"type":"VEC3"
		},
		{
			"bufferView":6,
			"componentType":5126,
			"count":441,
			"type":"VEC2"
		},
		{
			"bufferView":7,
			"componentType":5123,
			"count":2304,
			"type":"SCALAR"
		},
		{
			"bufferView":8,
			"componentType":5126,
			"count":441,
			"max":[
				0.8395062685012817,
				0.8395062685012817,
				0.8395062685012817
			],
			"min":[
				-0.8395062685012817,
				-0.8395062685012817,
				-0.8395062685012817
			],
			"type":"VEC3"
		},
		{
			"bufferView":9,
			"componentType":5126,
			"count":441,
			"type":"VEC3"
		},
		{
			"bufferView":10,
			"componentType":5126,
			"count":441,
			"type":"VEC2"
		},
		{
			"bufferView":11,
			"componentType":5126,
			"count":441,
			"max":[
				0.8395062685012817,
				0.8395062685012817,
				0.8395062685012817
			],
			"min":[
				-0.8395062685012817,
				-0.8395062685012817,
				-0.8395062685012817
			],
			"type":"VEC3"
		},
		{
			"bufferView":12,
			"componentType":5126,
			"count":441,
			"type":"VEC3"
		},
		{
			"bufferView":13,
			"componentType":5126,
			"count":441,
			"type":"VEC2"
		},
		{
			"bufferView":14,
			"componentType":5126,
			"count":441,
			"max":[
				0.8395062685012817,
				0.8395062685012817,
				0.8395062685012817
			],
			"min":[
				-0.8395062685012817,
				-0.8395062685012817,
				-0.8395062685012817
			],
			"type":"VEC3"
		},
		{
			"bufferView":15,
			"componentType":5126,
			"count":441,
			"type":"VEC3"
		},
		{
			"bufferView":16,
			"componentType":5126,
			"count":441,
			"type":"VEC2"
		},
		{
			"bufferView":17,
			"componentType":5126,
			"count":441,
			"max":[
				0.8395062685012817,
				0.8395062685012817,
				0.8395062685012817
			],
			"min":[
				-0.8395062685012817,
				-0.8395062685012817,
				-0.8395062685012817
			],
			"type":"VEC3"
		},
		{
			"bufferView":18,
			"componentType":5126,
			"count":441,
			"type":"VEC3"
		},
		{
			"bufferView":19,
			"componentType":5126,
			"count":441,
			"type":"VEC2"
		}
	],
	"bufferViews":[
		{
			"buffer":0,
			"byteLength":1500,
			"byteOffset":0,
			"target":34962
		},
		{
			"buffer":0,
			"byteLength":1500,
			"byteOffset":1500,
			"target":34962
		},
		{
			"buffer":0,
			"byteLength":1000,
			"byteOffset":3000,
			"target":34962
		},
		{
			"buffer":0,
			"byteLength":1152,
			"byteOffset":4000,
			"target":34963
		},
		{
			"buffer":0,
			"byteLength":5292,
			"byteOffset":5152,
			"target":34962
		},
		{
			"buffer":0,
			"byteLength":5292,
			"byteOffset":10444,
			"target":34962
		},
		{
			"buffer":0,
			"byteLength":3528,
			"byteOffset":15736,
			"target":34962
		},
		{
			"buffer":0,
			"byteLength":4608,
			"byteOffset":19264,
			"target":34963
		},
		{
			"buffer":0,
			"byteLength":5292,
			"byteOffset":23872,
			"target":34962
		},
		{
			"buffer":0,
			"byteLength":5292,
			"byteOffset":29164,
			"target":34962
		},
		{
			"buffer":0,
			"byteLength":3528,
			"byteOffset":34456,
			"target":34962
		},
		{
			"buffer":0,
			"byteLength":5292,
			"byteOffset":37984,
			"target":34962
		},
		{
			"buffer":0,
			"byteLength":5292,
			"byteOffset":43276,
			"target":34962
		},
		{
			"buffer":0,
			"byteLength":3528,
			"byteOffset":48568,
			"target":34962
		},
		{
			"buffer":0,
			"byteLength":5292,
			"byteOffset":52096,
			"target":34962
		},
		{
			"buffer":0,
			"byteLength":5292,
			"byteOffset":57388,
			"target":34962
		},
		{
			"buffer":0,
			"byteLength":3528,
			"byteOffset":62680,
			"target":34962
		},
		{
			"buffer":0,
			"byteLength":5292,
			"byteOffset":66208,
			"target":34962
		},
		{
			"buffer":0,
			"byteLength":5292,
			"byteOffset":71500,
			"target":34962
		},
		{
			"buffer":0,
			"byteLength":3528,
			"byteOffset":76792,
			"target":34962
		}
	],
	"buffers":[
		{
			"byteLength":80320,
			"uri":"roughness_test.bin"
		}
	]
}
